<?xml version="1.0" encoding="UTF-8"?>
<svg width="122px" height="79px" viewBox="0 0 122 79" version="1.1" xmlns="http://www.w3.org/2000/svg" xmlns:xlink="http://www.w3.org/1999/xlink">
    <!-- Generator: Sketch 47.1 (45422) - http://www.bohemiancoding.com/sketch -->
    <title>gift-top</title>
    <desc>Created with Sketch.</desc>
    <defs></defs>
    <g id="Page-1" stroke="none" stroke-width="1" fill="none" fill-rule="evenodd">
        <g id="Tablet" transform="translate(-412.000000, -186.000000)">
            <g id="gift-top" transform="translate(412.000000, 186.000000)">
                <path d="M60,51.5527378 C64.418278,51.5527378 68,50.418278 68,46 C68,41.581722 64.418278,38 60,38 C55.581722,38 52,41.581722 52,46 C52,50.418278 55.581722,51.5527378 60,51.5527378 Z" id="gift-ribbon" fill="#F5A623"></path>
                <g transform="translate(0.000000, 54.000000)">
                    <rect id="Rectangle-2-Copy" fill="#D0021B" x="0" y="0" width="122" height="25" rx="5"></rect>
                    <rect id="Rectangle-2-Copy-2" fill="#F5A623" x="50" y="0" width="23" height="25"></rect>
                </g>
                <g id="gift-ribbon-left" transform="translate(1.000000, 0.000000)" fill="#F5A623">
                    <path d="M54.3510137,35.8648156 C58.8307406,8.94535008 49.6246615,-2.68903944 26.7327765,0.961647082 C3.84089147,4.61233361 11.0363421,18.8422961 48.3191285,43.6515346 C26.4112151,23.3523769 20.9342367,12.5761169 31.8881934,11.3227545 C42.8421501,10.0693922 50.3297569,18.2500793 54.3510137,35.8648156 Z" id="Path-2"></path>
                    <path d="M48.3741449,47.3452225 C33.3426502,43.7084481 23.3467379,39.725766 18.3864079,35.3971762 C10.9459129,28.9042914 10.2278539,18.0660589 3.10892029,23.0308155 C-4.01001329,27.9955721 5.01931765,38.3908276 24.2617809,43.5813412 C37.0900897,47.0416836 45.1275444,48.2963107 48.3741449,47.3452225 Z" id="Path-3"></path>
                </g>
                <g id="gift-ribbon-right" transform="translate(64.000000, 0.000000)" fill="#F5A623">
                    <path d="M41.3510137,35.8648156 C45.8307406,8.94535008 36.6246615,-2.68903944 13.7327765,0.961647082 C-9.15910853,4.61233361 -1.96365787,18.8422961 35.3191285,43.6515346 C13.4112151,23.3523769 7.93423672,12.5761169 18.8881934,11.3227545 C29.8421501,10.0693922 37.3297569,18.2500793 41.3510137,35.8648156 Z" id="Path-2-Copy" transform="translate(21.560304, 21.979617) scale(-1, 1) translate(-21.560304, -21.979617) "></path>
                    <path d="M54.3741449,47.3452225 C39.3426502,43.7084481 29.3467379,39.725766 24.3864079,35.3971762 C16.9459129,28.9042914 16.2278539,18.0660589 9.10892029,23.0308155 C1.98998671,27.9955721 11.0193177,38.3908276 30.2617809,43.5813412 C43.0900897,47.0416836 51.1275444,48.2963107 54.3741449,47.3452225 Z" id="Path-3-Copy" transform="translate(30.530758, 34.710438) scale(-1, 1) translate(-30.530758, -34.710438) "></path>
                </g>
            </g>
        </g>
    </g>
</svg>